<svg width="20" height="12" viewBox="0 0 20 12" fill="none" xmlns="http://www.w3.org/2000/svg">
<path fill-rule="evenodd" clip-rule="evenodd" d="M0.857178 5.88536C5.76315 -1.61681 14.6831 -1.86177 19.1429 5.88536C14.6831 13.8156 5.76315 13.8156 0.857178 5.88536ZM13.7908 5.97679C13.7908 8.14151 12.1934 9.89636 10.223 9.89636C8.25227 9.89636 6.65489 8.14151 6.65489 5.97679C6.65489 3.81236 8.25227 2.05751 10.223 2.05751C12.1934 2.05751 13.7908 3.81236 13.7908 5.97679ZM10.2232 7.93672C11.2085 7.93672 12.0073 7.05944 12.0073 5.97708C12.0073 4.89472 11.2085 4.01744 10.2232 4.01744C9.23804 4.01744 8.43921 4.89472 8.43921 5.97708C8.43921 7.05944 9.23804 7.93672 10.2232 7.93672Z" fill="#777777"/>
</svg>
