<svg width="11" height="10" viewBox="0 0 11 10" fill="none" xmlns="http://www.w3.org/2000/svg">
<path fill-rule="evenodd" clip-rule="evenodd" d="M7.93534 1.48879L5.4722 3.59743L4.83012 2.88942L7.29325 0.780782C8.09672 0.0927941 9.32328 0.16921 10.0325 0.951192L10.4231 1.38186C11.1324 2.16408 11.0562 3.35573 10.2525 4.04372L7.78861 6.15139L7.14725 5.44436L9.61039 3.33571C10.0122 2.99172 10.0503 2.39577 9.69559 2.00466L9.30497 1.574C8.95048 1.18313 8.3372 1.1448 7.93534 1.48879ZM3.71073 3.84792L4.35282 4.55593L1.88944 6.66482C1.48759 7.00881 1.4495 7.60476 1.80424 7.99563L2.19486 8.42629C2.54935 8.8174 3.16263 8.85549 3.56449 8.51149L6.02787 6.40261L6.66923 7.10988L4.20658 9.21975C3.40311 9.90749 2.17655 9.83132 1.46732 9.04909L1.0767 8.61843C0.367224 7.83645 0.44364 6.6448 1.24735 5.95681L3.71073 3.84792ZM3.54398 6.40578C3.38969 6.53786 3.37504 6.76687 3.51127 6.91701C3.6475 7.06716 3.88309 7.08181 4.03739 6.94973L7.95658 3.5945C8.11088 3.46242 8.12553 3.23342 7.9893 3.08327C7.90385 2.98903 7.77909 2.94802 7.65971 2.9634C7.58915 2.97268 7.52055 3.00149 7.46317 3.05056L3.54398 6.40578Z" fill="#333333"/>
</svg>
